<svg xmlns="http://www.w3.org/2000/svg" fill="currentColor" viewBox="0 0 24 24">
  <path d="M19.43 12.98c.04-.32.07-.65.07-.98s-.03-.66-.07-.98l2.11-1.65a.5.5 0 0 0 .12-.64l-2-3.46a.5.5 0 0 0-.6-.22l-2.49 1a7.05 7.05 0 0 0-1.69-.98L14.5 2.5a.5.5 0 0 0-.5-.5h-4a.5.5 0 0 0-.5.5l-.38 2.57a6.96 6.96 0 0 0-1.69.98l-2.49-1a.5.5 0 0 0-.6.22l-2 3.46a.5.5 0 0 0 .12.64l2.11 1.65c-.04.32-.07.65-.07.98s.03.66.07.98L2.46 14.63a.5.5 0 0 0-.12.64l2 3.46a.5.5 0 0 0 .6.22l2.49-1c.52.4 1.09.73 1.69.98l.38 2.57a.5.5 0 0 0 .5.5h4a.5.5 0 0 0 .5-.5l.38-2.57c.6-.25 1.17-.58 1.69-.98l2.49 1a.5.5 0 0 0 .6-.22l2-3.46a.5.5 0 0 0-.12-.64l-2.11-1.65ZM12 15.5A3.5 3.5 0 1 1 12 8.5a3.5 3.5 0 0 1 0 7Z"></path>
</svg>
